<svg id="Layer_1" data-name="Layer 1" xmlns="http://www.w3.org/2000/svg" xmlns:xlink="http://www.w3.org/1999/xlink" viewBox="0 0 243.77 211.7"><defs><style>.cls-1{fill:none;}.cls-2{clip-path:url(#clip-path);}.cls-3{fill:#231f20;}.cls-4{fill:#fff;}.cls-5{fill:#eeb111;}</style><clipPath id="clip-path" transform="translate(0 -0.3)"><rect class="cls-1" x="0.06" y="0.3" width="243.71" height="211.7"/></clipPath></defs><title>W-gold-black</title><g class="cls-2"><polyline class="cls-3" points="243.77 0.02 165.33 0.02 165.33 48.86 175.94 48.86 165.94 88.61 145.29 0 99 0 78.16 88.7 68.19 48.87 78.86 48.87 78.86 0 0 0 0 48.89 11.02 48.89 52.92 211.7 99.26 211.7 121.94 127.51 145.03 211.7 191.13 211.7 232.81 48.89 243.77 48.89 243.77 0.02"/></g><polyline class="cls-4" points="239.72 4.09 169.42 4.09 169.42 44.79 181.31 44.79 165.94 106.42 141.85 4.09 102.45 4.09 78.17 105.82 62.79 44.79 74.74 44.79 74.74 4.09 4.07 4.09 4.07 44.8 14.2 44.8 56.08 207.63 96.14 207.63 121.94 112.37 148.14 207.63 187.99 207.63 229.65 44.8 239.72 44.8 239.72 4.09"/><polyline class="cls-5" points="237.58 6.25 171.57 6.25 171.57 42.63 183.99 42.63 165.94 115.43 140.11 6.25 104.21 6.25 78.17 115.4 60.1 42.63 72.59 42.63 72.59 6.25 6.22 6.25 6.22 42.65 15.85 42.65 57.77 205.56 94.51 205.56 121.94 103.74 149.76 205.56 186.3 205.56 228 42.65 237.58 42.65 237.58 6.25"/></svg>