<?xml version="1.0" encoding="utf-8"?>
<!-- Generator: Adobe Illustrator 21.1.0, SVG Export Plug-In . SVG Version: 6.00 Build 0)  -->
<svg version="1.1" id="Layer_1" xmlns="http://www.w3.org/2000/svg" xmlns:xlink="http://www.w3.org/1999/xlink" x="0px" y="0px"
	 viewBox="0 0 250.1 52.2" style="enable-background:new 0 0 250.1 52.2;" xml:space="preserve">
<style type="text/css">
	.st0{fill:#986516;stroke:#986516;stroke-width:0.6282;stroke-miterlimit:3.8637;}
</style>
<g>
	<path class="st0" d="M0.5,0.3C0.8,1,1.2,2.1,1.5,3L6,20h2.9l4.5-17.2l4.8,17.3h2.9L25.6,3c0.3-1,0.7-1.9,1.1-2.6h-2.1
		c0,0.6-0.1,1.4-0.4,2.4l-4,14.8L15.5,0.3h-2.8L7.9,17.6L4,3.2c-0.3-1-0.4-2.1-0.2-2.9H0.5L0.5,0.3z"/>
	<path class="st0" d="M28.7,3.6C28.8,4.2,29,5.2,29,6.3v10.4c0,1.1-0.1,2.6-0.3,3.4h10.7v-1.5c-0.7,0.2-1.6,0.5-2.6,0.5h-5.6v-6.7
		h6.5c0.4,0,1,0,1.4,0.1v-1.3c-0.4,0.1-0.9,0.1-1.4,0.1h-6.4V4.7h5.2c1,0,2.1,0.3,2.8,0.5V3.6H28.7L28.7,3.6z"/>
	<path class="st0" d="M43.8,14.7c0.4,2.8,1.4,4.8,4.8,4.8c3.1,0,4.1-1.7,4.1-3.2s-0.6-2.6-4.7-3.5c-3.8-0.8-5.5-2.1-5.5-5
		c0-2.8,2.7-4.5,5.7-4.5c3.1,0,5.5,1.3,5.9,4.4l-1.8,0.7c-0.3-2.2-1.4-4.1-4.1-4.1c-2.6,0-4.1,1.7-4.1,3.2c0,1.6,1.7,2.6,3.9,3.1
		c3,0.6,6.4,1.5,6.4,4.5c0,3.1-1.7,5.4-5.8,5.4c-3.7,0-6.2-1.7-6.7-4.9L43.8,14.7L43.8,14.7z"/>
	<path class="st0" d="M62.1,4.7v13.9c0,0.6-0.1,0.9-0.2,1.4h2.8c-0.1-0.4-0.2-0.9-0.2-1.4V4.7h4c0.7,0,1.7,0.1,2.3,0.3V3.6H55.9V5
		c0.7-0.2,1.4-0.3,2.1-0.3H62.1L62.1,4.7z"/>
	<path class="st0" d="M73,3.6c0.1,0.6,0.3,1.6,0.3,2.7v10.4c0,1.1-0.1,2.6-0.3,3.4h10.7v-1.5c-0.7,0.2-1.6,0.5-2.6,0.5h-5.6v-6.7H82
		c0.4,0,1,0,1.4,0.1v-1.3c-0.4,0.1-0.9,0.1-1.4,0.1h-6.5V4.7h5.4c1,0,2.1,0.3,2.8,0.5V3.6H73L73,3.6z"/>
	<path class="st0" d="M89.5,10v1.4h3c2.2,0,3.7-1.5,3.7-3.4c0-1.8-1.1-3.3-3.4-3.3h-3.3V10l-2.2,0.1V6.3c0-1.1-0.2-2.1-0.3-2.7h6.2
		c2.3,0,5,1.1,5,4.3c0,3.1-2.5,3.9-4,4.3c1.5,1.9,3.3,4.7,4.5,6.7c0.3,0.5,0.6,0.8,1,1.2h-2.8c-0.1-0.4-0.3-0.8-0.6-1.2
		c-0.8-1.3-2.3-4.1-3.5-5.6c-0.4-0.6-0.9-0.8-1.5-0.8h-1.8v7.6H87c0.2-0.8,0.3-2.2,0.3-3.4v-6.6L89.5,10L89.5,10z"/>
	<path class="st0" d="M114.6,20h1.8c-0.2-0.8-0.3-2.2-0.3-3.4V6.3c0-1.1,0.2-2.1,0.3-2.7h-1.7c0.1,0.6,0.3,1.6,0.3,2.7v11.1
		L104.7,3.6h-2.1c0.1,0.6,0.3,1.6,0.3,2.7v10.4c0,1.1-0.1,2.6-0.3,3.4h1.7c-0.2-0.8-0.3-2.2-0.3-3.4V5.9L114.6,20L114.6,20z"/>
</g>
<g>
	<path class="st0" d="M130.4,2.5V16c0,1.4,0.2,3.1,0.4,4.1h-2.1c0.2-0.9,0.4-2.7,0.4-4.1V3.5c0-1.3-0.2-2.5-0.4-3.2h3.6l6.9,17.2
		l7.1-17.2h3.2c-0.2,0.7-0.4,2-0.4,3.3v12.5c0,1.4,0.2,3,0.4,3.9h-3.2c0.2-0.9,0.4-2.6,0.4-3.9v-13L139.4,20h-1.7L130.4,2.5
		L130.4,2.5z"/>
	<path class="st0" d="M156.5,3.6h-2.4c0.1,0.6,0.3,1.6,0.3,2.7v10.4c0,1.1-0.1,2.6-0.3,3.4h2.4c-0.2-0.8-0.3-2.2-0.3-3.4V6.3
		C156.2,5.3,156.4,4.2,156.5,3.6L156.5,3.6z"/>
	<path class="st0" d="M174.1,8.5c-1-1.9-2.3-4.2-5.9-4.2c-3.2,0-6.3,2.8-6.3,7c0,4.6,2,8.3,6.3,8.3c3.8,0,5.4-3,5.9-4.3l1.3,1.3
		c-1.7,2-3.7,3.9-7.2,3.9c-3.6,0-8.5-2.5-8.5-9.1c0-5.3,5-8.1,8.5-8.1c3.8,0,5.7,1.8,7.3,3.9L174.1,8.5L174.1,8.5z"/>
	<path class="st0" d="M197.3,3.6h-2.4c0.1,0.6,0.3,1.6,0.3,2.7v10.4c0,1.1-0.1,2.6-0.3,3.4h2.4c-0.2-0.8-0.3-2.2-0.3-3.4V6.3
		C197,5.3,197.2,4.2,197.3,3.6L197.3,3.6z"/>
	<path class="st0" d="M188.5,12.4v4.3c0,1.1-0.1,2.6-0.3,3.4h2.4c-0.2-0.8-0.3-2.2-0.3-3.4V6.3c0-1,0.2-2.1,0.3-2.7h-2.4
		c0.1,0.6,0.3,1.6,0.3,2.7v5h-8.9v-5c0-1,0.2-2.1,0.3-2.7h-2.4c0.1,0.6,0.3,1.6,0.3,2.7v10.4c0,1.1-0.1,2.6-0.3,3.4h2.4
		c-0.2-0.8-0.3-2.2-0.3-3.4v-4.3L188.5,12.4L188.5,12.4z"/>
	<path class="st0" d="M213.7,17.4c-0.8,0.9-2.3,2.2-5.1,2.2c-4.3,0-6.3-3.7-6.3-8.3c0-4.2,3.1-6.9,6.3-6.9c3.7,0,4.9,2.3,5.9,4.2
		l1.3-1.3c-1.5-2.1-3.5-3.9-7.3-3.9c-3.5,0-8.5,2.8-8.5,8.1c0,6.6,4.9,9.1,8.5,9.1c3.1,0,5.8-1,7.3-2.7v-6.3h-5v0.7h2.9L213.7,17.4
		L213.7,17.4z"/>
	<path class="st0" d="M224.9,12.1h-2.2l2.4-6.6l2.4,6.6H224.9v1h3l2,5.5c0.2,0.5,0.4,1,0.4,1.4h2.6c-0.2-0.4-0.5-0.9-0.7-1.5
		l-5.5-14.9h-2.1l-5.5,15.1c-0.2,0.5-0.4,0.9-0.7,1.4h1.8c0-0.6,0-1,0.2-1.6l2-5.3h2.6L224.9,12.1L224.9,12.1z"/>
	<path class="st0" d="M247.9,20.1h1.8c-0.2-0.8-0.3-2.2-0.3-3.4V6.3c0-1.1,0.2-2.1,0.3-2.7h-1.8c0.1,0.6,0.3,1.6,0.3,2.7v11.1
		L238,3.7h-2.1c0.1,0.6,0.3,1.6,0.3,2.7v10.4c0,1.1-0.1,2.6-0.3,3.4h1.7c-0.2-0.8-0.3-2.2-0.3-3.4V5.9L247.9,20.1L247.9,20.1z"/>
</g>
<g>
	<path class="st0" d="M97.6,35.1h-2.4c0.1,0.6,0.3,1.6,0.3,2.7v10.4c0,1.1-0.1,2.6-0.3,3.4h2.4c-0.2-0.8-0.3-2.2-0.3-3.4V37.7
		C97.3,36.8,97.5,35.7,97.6,35.1L97.6,35.1z"/>
	<path class="st0" d="M133.8,41.8v-5.7h3.2c2.3,0,3.4,1.5,3.4,3.3c0,1.9-1.5,3.4-3.7,3.4h-2.9V41.8h-2.2v6.3c0,1.1-0.1,2.6-0.3,3.4
		h2.5v-7.6h1.9c0.6,0,1,0.3,1.5,0.8c1.2,1.5,2.7,4.3,3.5,5.6c0.3,0.4,0.5,0.8,0.6,1.2h2.8c-0.4-0.4-0.7-0.7-1-1.2
		c-1.1-1.9-2.9-4.8-4.5-6.7c1.5-0.3,4-1.1,4-4.3c0-3.1-2.7-4.3-5-4.3h-6.2c0.1,0.6,0.3,1.6,0.3,2.7v4.1L133.8,41.8L133.8,41.8z"/>
	<path class="st0" d="M147,46.2c0.4,2.8,1.4,4.8,4.8,4.8c3.1,0,4.1-1.7,4.1-3.2s-0.6-2.6-4.7-3.5c-3.8-0.9-5.5-2.1-5.5-5.1
		c0-2.8,2.7-4.5,5.7-4.5c3.1,0,5.5,1.3,5.9,4.4l-1.8,0.7c-0.3-2.2-1.4-4.1-4.1-4.1c-2.6,0-4.1,1.7-4.1,3.2c0,1.6,1.7,2.6,3.9,3.1
		c3,0.6,6.4,1.5,6.4,4.5c0,3.1-1.7,5.4-5.8,5.4c-3.7,0-6.2-1.7-6.7-4.9L147,46.2L147,46.2z"/>
	<path class="st0" d="M163.5,35.1h-2.4c0.1,0.6,0.3,1.6,0.3,2.7v10.4c0,1.1-0.1,2.6-0.3,3.4h2.4c-0.2-0.8-0.3-2.2-0.3-3.4V37.7
		C163.1,36.8,163.3,35.7,163.5,35.1L163.5,35.1z"/>
	<path class="st0" d="M181.1,36.7l4.4,6.1l4.9-6.5c0.2-0.3,0.5-0.9,0.6-1.2h2c-0.6,0.7-1,1.3-1.3,1.7l-5.5,7.6V50
		c0,0.6,0.2,1.1,0.3,1.6h-2.6c0.2-0.5,0.3-1.1,0.3-1.6v-5.8l-5.7-8.1h-5.2V50c0,0.5,0.1,1,0.2,1.4h-2.8c0.2-0.5,0.2-0.8,0.2-1.4
		V36.1h-4c-0.7,0-1.4,0.1-2.1,0.3V35h15.5C180.3,35.5,180.6,35.9,181.1,36.7L181.1,36.7z"/>
	<path class="st0" d="M117.3,35.1c0.1,0.6,0.3,1.6,0.3,2.7v10.4c0,1.1-0.1,2.6-0.3,3.4H128v-1.5c-0.7,0.2-1.6,0.5-2.6,0.5h-5.6v-6.7
		h6.5c0.4,0,1,0,1.4,0.1v-1.3c-0.4,0.1-0.9,0.1-1.4,0.1h-6.4v-6.7h5.4c1,0,2.1,0.3,2.8,0.5v-1.5L117.3,35.1L117.3,35.1z"/>
	<path class="st0" d="M57.7,31.7c0.2,1,0.3,2,0.3,3.1c0,1.2,0,10,0,10c0,3.4,1.9,7.1,7.7,7.1c5.5,0,7.2-4.9,7.2-7.2v-9.9
		c0-1.2,0.2-2.3,0.4-3.2H71c0.2,0.9,0.3,2,0.3,3.1v9.6c0,2.5-1.3,6.3-5.6,6.3c-4,0-5.1-3.1-5.1-5.7V34.8c0-1,0.1-2,0.4-3.1H57.7
		L57.7,31.7z"/>
	<path class="st0" d="M100.3,35.1c0.4,0.6,0.8,1.4,1.1,2.2l5,14.2h2.6l5.3-14.1c0.3-0.9,0.8-1.5,1.3-2.3h-2.3
		c-0.1,0.8-0.2,1.4-0.4,2l-4.8,12.8l-4.5-12.6c-0.3-0.8-0.4-1.4-0.5-2.2L100.3,35.1L100.3,35.1z"/>
	<path class="st0" d="M89.6,51.5h1.8c-0.2-0.8-0.3-2.2-0.3-3.4V37.7c0-1.1,0.2-2.1,0.3-2.7h-1.7c0.1,0.6,0.3,1.6,0.3,2.7v11.1
		L79.7,35.1h-2.1c0.1,0.6,0.3,1.6,0.3,2.7v10.4c0,1.1-0.1,2.6-0.3,3.4h1.7c-0.2-0.8-0.3-2.2-0.3-3.4V37.3L89.6,51.5L89.6,51.5z"/>
</g>
</svg>
