<?xml version="1.0" encoding="utf-8"?>
<!-- Generator: Adobe Illustrator 22.1.0, SVG Export Plug-In . SVG Version: 6.00 Build 0)  -->
<svg version="1.1" id="Layer_2" xmlns="http://www.w3.org/2000/svg" xmlns:xlink="http://www.w3.org/1999/xlink" x="0px" y="0px"
	 viewBox="0 0 250.1 52.2" style="enable-background:new 0 0 250.1 52.2;" xml:space="preserve">
<style type="text/css">
	.st0{fill:#986516;}
	.st1{fill:#986627;}
</style>
<g>
	<path class="st0" d="M36.8,18.8h-5.3v-6.1h6.2c0.4,0,1,0,1.3,0.1l0.4,0.1v-2.1L39,10.9C38.7,11,38.2,11,37.7,11h-6.1V5h4.9
		c1,0,2.2,0.3,2.7,0.5l0.4,0.1V3.3H28.3l0.1,0.6c0.1,0.6,0.3,1.5,0.3,2.4v10.4c0,1.1-0.1,2.6-0.3,3.3l-0.1,0.4h11.4v-2.2l-0.6,0.2
		C38.4,18.6,37.6,18.8,36.8,18.8z"/>
	<path class="st0" d="M24.3,0.4c0,0.7-0.1,1.5-0.4,2.3l-3.7,13.7L15.7,0h-3.3L7.9,16.5L4.3,3.1c-0.3-1-0.4-2-0.2-2.7L4.2,0H0
		l0.2,0.4c0.3,0.6,0.7,1.7,1,2.7l4.6,17.2h3.4L13.4,4L18,20.4h3.4l4.6-17.3c0.3-1.1,0.8-2,1.1-2.5l0.3-0.4h-2.9V0.4z"/>
	<path class="st0" d="M48.1,10.3c-1.4-0.3-3.7-1.1-3.7-2.8c0-1.4,1.5-2.9,3.8-2.9c2.2,0,3.5,1.3,3.8,3.8l0.1,0.4l2.4-0.9l0-0.2
		C54,4.7,51.8,3,48.2,3c-3.4,0-6,2.1-6,4.8c0,3.4,2.3,4.6,5.7,5.3c4.1,0.9,4.5,2,4.5,3.2c0,0.7-0.3,2.9-3.8,2.9
		c-3.2,0-4.1-1.8-4.5-4.5L44,14.3l-2.5,1.2l0,0.2c0.5,3.3,3.1,5.2,7,5.2c3.9,0,6.1-2.1,6.1-5.7C54.7,11.9,51.3,10.9,48.1,10.3z"/>
	<path class="st0" d="M55.6,5.4L56,5.3C56.7,5.1,57.3,5,58,5h3.8v13.6c0,0.4-0.1,0.7-0.1,1l-0.1,0.7h3.6L65,19.9
		c-0.1-0.5-0.2-0.9-0.2-1.3V5h3.7c0.7,0,1.6,0.1,2.2,0.3l0.4,0.1V3.3H55.6V5.4z"/>
	<path class="st0" d="M72.7,3.9C72.8,4.5,73,5.4,73,6.3v10.4c0,1.1-0.1,2.6-0.3,3.3l-0.1,0.4H84v-2.2l-0.6,0.2
		c-0.6,0.2-1.4,0.4-2.3,0.4h-5.3v-6.1H82c0.4,0,1,0,1.3,0.1l0.4,0.1v-2.1l-0.4,0.1C83,11,82.5,11,82,11h-6.2V5h5.1
		c1,0,2.2,0.3,2.7,0.5L84,5.6V3.3H72.6L72.7,3.9z"/>
	<path class="st0" d="M99,18.7c-0.6-0.9-2.5-4-4.2-6.4c1.4-0.4,3.8-1.4,3.8-4.5c0-3.4-2.9-4.6-5.3-4.6h-6.6l0.1,0.6
		C86.8,4.5,87,5.4,87,6.3v10.4c0,1.3-0.1,2.6-0.3,3.3l-0.1,0.4h3.2v-7.6h1.5c0.6,0,0.9,0.2,1.3,0.7c0.9,1.1,1.9,2.8,2.7,4.2
		c0.3,0.5,0.6,1,0.8,1.4c0.3,0.4,0.5,0.7,0.5,1.1l0.1,0.2h3.8l-0.5-0.5C99.5,19.5,99.2,19.2,99,18.7z M89.8,5h3c2.3,0,3.1,1.5,3.1,3
		c0,1.8-1.4,3.1-3.4,3.1h-2.7V5z"/>
	<path class="st0" d="M114.5,20.3h2.3l-0.1-0.4c-0.2-0.7-0.3-2-0.3-3.3V6.3c0-0.9,0.2-1.8,0.3-2.4l0.1-0.6h-2.4l0.1,0.6
		c0.1,0.6,0.3,1.5,0.3,2.4v10.2l-9.8-13.2h-2.6l0.1,0.6c0.1,0.6,0.3,1.5,0.3,2.4v10.4c0,1.1-0.1,2.6-0.3,3.3l-0.1,0.4h2.5l-0.1-0.4
		c-0.2-0.7-0.3-2-0.3-3.3V6.8L114.5,20.3z"/>
</g>
<g>
	<path class="st0" d="M149.8,0.4l0.1-0.4h-3.8l-6.9,16.7L132.5,0h-4.2l0.1,0.4c0.2,0.7,0.4,1.8,0.4,3.1V16c0,1.4-0.2,3.2-0.4,4
		l-0.1,0.4h2.8l-0.1-0.4c-0.2-0.9-0.4-2.6-0.4-4V4l6.8,16.3h2.1l6.8-15.7v11.5c0,1.3-0.2,3-0.4,3.8l-0.1,0.4h3.9l-0.1-0.4
		c-0.2-0.9-0.4-2.4-0.4-3.8V3.6C149.4,2.3,149.6,1.1,149.8,0.4z"/>
	<path class="st0" d="M156.5,16.7V6.3c0-0.9,0.2-1.9,0.3-2.5l0.1-0.5h-3.1l0.1,0.6c0.1,0.6,0.3,1.5,0.3,2.4v10.4
		c0,1.1-0.1,2.6-0.3,3.3l-0.1,0.4h3.2l-0.1-0.4C156.6,19.3,156.5,18,156.5,16.7z"/>
	<path class="st0" d="M168.2,4.6c3.5,0,4.7,2.3,5.6,4L174,9l1.9-1.8L175.7,7c-1.8-2.4-3.8-4-7.5-4c-3.7,0-8.8,2.9-8.8,8.4
		c0,6.9,5.3,9.4,8.8,9.4c3.7,0,5.8-2.1,7.4-4l0.2-0.2l-1.8-1.8l-0.2,0.4c-0.5,1.2-2,4.1-5.6,4.1c-3.8,0-6-3-6-8
		C162.2,7.2,165.3,4.6,168.2,4.6z"/>
	<path class="st0" d="M197.3,16.7V6.3c0-0.9,0.2-1.9,0.3-2.5l0.1-0.5h-3.1l0.1,0.6c0.1,0.6,0.3,1.5,0.3,2.4v10.4
		c0,1.1-0.1,2.6-0.3,3.3l-0.1,0.4h3.2l-0.1-0.4C197.4,19.3,197.3,18,197.3,16.7z"/>
	<path class="st0" d="M190.6,16.7V6.3c0-0.9,0.2-1.9,0.3-2.5l0.1-0.5h-3.1l0.1,0.6c0.1,0.6,0.3,1.5,0.3,2.4V11h-8.3V6.3
		c0-0.9,0.2-1.9,0.3-2.5l0.1-0.5h-3.1l0.1,0.6c0.1,0.6,0.3,1.5,0.3,2.4v10.4c0,1.1-0.1,2.6-0.3,3.3l-0.1,0.4h3.2l-0.1-0.4
		c-0.2-0.7-0.3-2-0.3-3.3v-4h8.3v4c0,1.1-0.1,2.6-0.3,3.3l-0.1,0.4h3.2l-0.1-0.4C190.7,19.3,190.6,18,190.6,16.7z"/>
	<path class="st0" d="M208.6,4.7c3.5,0,4.6,2.1,5.6,4l0.2,0.4l1.8-1.8L216,7.1c-1.3-1.9-3.4-4-7.5-4c-3.7,0-8.8,2.9-8.8,8.4
		c0,6.9,5.3,9.4,8.8,9.4c3.2,0,6-1,7.5-2.8l0.1-0.1v-6.7h-5.6v1.3h2.9v4.7c-1.2,1.4-2.8,2-4.8,2c-3.8,0-6-3-6-8
		C202.6,7.2,205.7,4.7,208.6,4.7z"/>
	<path class="st0" d="M233,19.6c-0.2-0.3-0.4-0.7-0.5-1.2l-5.6-15.1h-2.5l-5.6,15.3c-0.2,0.5-0.4,0.9-0.7,1.4l-0.3,0.5h2.6v-0.3
		c0-0.6,0-1,0.2-1.5l1.9-5.1h5.1l1.9,5.2c0.2,0.5,0.4,0.9,0.4,1.3v0.3h3.4l-0.2-0.4L233,19.6z M223.1,11.8l2-5.4l2,5.4H223.1z"/>
	<path class="st0" d="M247.8,20.4h2.3L250,20c-0.2-0.7-0.3-2-0.3-3.3V6.3c0-0.9,0.2-1.8,0.3-2.4l0.1-0.6h-2.5l0.1,0.6
		c0.1,0.6,0.3,1.5,0.3,2.4v10.2l-9.8-13.1h-2.6l0.1,0.6c0.1,0.6,0.3,1.5,0.3,2.4v10.4c0,1.1-0.1,2.6-0.3,3.3l-0.1,0.4h2.5l-0.1-0.4
		c-0.2-0.7-0.3-2-0.3-3.3v-10L247.8,20.4z"/>
</g>
<g>
	<path class="st1" d="M97.6,48.2V37.7c0-0.8,0.2-1.8,0.3-2.4l0.1-0.5h-3.1l0.1,0.6c0.1,0.6,0.3,1.5,0.3,2.4v10.4
		c0,1.1-0.1,2.6-0.3,3.3l-0.1,0.4H98l-0.1-0.4C97.7,50.8,97.6,49.5,97.6,48.2z"/>
	<path class="st1" d="M143.4,50.1c-0.7-1.2-2.5-4.2-4.2-6.4c2.5-0.6,3.8-2.1,3.8-4.5c0-3.2-2.7-4.6-5.3-4.6H131l0.1,0.6
		c0,0.3,0.1,0.7,0.2,1v11.8c0,1.1-0.1,2.6-0.3,3.3l-0.1,0.4h3.2v-7.6h1.6c0.5,0,0.8,0.2,1.3,0.7c0.9,1.1,1.9,2.8,2.7,4.2
		c0.3,0.5,0.6,1,0.8,1.4c0.3,0.4,0.5,0.7,0.5,1.1l0.1,0.2h3l0.7,0l-0.5-0.5C143.9,50.9,143.6,50.6,143.4,50.1z M134.1,36.4h2.9
		c2.3,0,3.1,1.6,3.1,3c0,1.8-1.4,3.1-3.4,3.1h-2.6V36.4z"/>
	<path class="st1" d="M151.3,41.7c-1.4-0.3-3.7-1.1-3.7-2.8c0-1.4,1.5-2.9,3.8-2.9c2.2,0,3.5,1.3,3.8,3.8l0.1,0.4l2.4-0.9l0-0.2
		c-0.4-3-2.6-4.7-6.2-4.7c-3.4,0-6,2.1-6,4.8c0,3.4,2.1,4.5,5.7,5.4c4.1,0.9,4.5,2,4.5,3.2c0,0.7-0.3,2.9-3.8,2.9
		c-3.2,0-4.1-1.8-4.5-4.5l-0.1-0.4l-2.5,1l0,0.2c0.5,3.3,3.1,5.2,7,5.2c3.9,0,6.1-2.1,6.1-5.7C157.9,43.3,154.5,42.3,151.3,41.7z"/>
	<path class="st1" d="M163.9,34.8h-3.2l0.1,0.6c0.1,0.6,0.3,1.5,0.3,2.4v10.4c0,1.1-0.1,2.6-0.3,3.3l-0.1,0.4h3.2l-0.1-0.4
		c-0.2-0.7-0.3-2-0.3-3.3l0-10.5c-0.1-0.8,0.1-1.8,0.3-2.5L163.9,34.8z"/>
	<path class="st1" d="M190.8,34.8l-0.1,0.2c-0.1,0.3-0.4,0.9-0.6,1.1l-4.7,6.2l-4.2-5.8l-0.2-0.3c-0.4-0.6-0.6-0.9-0.6-1.3v-0.3
		h-16.1v2.1l0.4-0.1c0.7-0.2,1.4-0.3,2-0.3h3.7V50c0,0.6,0,0.8-0.2,1.3l-0.2,0.4h3.6l-0.1-0.4c-0.1-0.3-0.2-0.8-0.2-1.3V36.4h4.7
		l5.6,7.9V50c0,0.5-0.1,1.1-0.3,1.5l-0.2,0.4h3.4l-0.1-0.4c0-0.2-0.1-0.3-0.1-0.5c-0.1-0.3-0.2-0.7-0.2-1.1v-5.5l5.7-7.9
		c0.3-0.4,0.6-0.8,1-1.3l0.4-0.5H190.8z"/>
	<path class="st1" d="M117,35.4c0.1,0.6,0.3,1.5,0.3,2.4v10.4c0,1.1-0.1,2.6-0.3,3.3l-0.1,0.4h11.4v-2.2l-0.6,0.2
		c-0.6,0.2-1.4,0.4-2.3,0.4h-5.3v-6.1h6.2c0.4,0,1,0,1.3,0.1l0.4,0.1v-2.1l-0.4,0.1c-0.4,0.1-0.9,0.1-1.3,0.1h-6.1v-6.1h5.1
		c1,0,2.2,0.3,2.7,0.5l0.4,0.1v-2.2h-11.5L117,35.4z"/>
	<path class="st1" d="M70.7,31.7c0.2,0.8,0.3,1.9,0.3,3v9.6c0,2.2-1.1,6-5.3,6c-4.3,0-4.8-3.8-4.8-5.4V34.8c0-1.1,0.1-2,0.4-3
		l0.1-0.4h-4.1l0.1,0.4c0.2,1,0.3,2,0.3,3v10c0,3.6,2.1,7.4,8,7.4c5.7,0,7.5-5.1,7.5-7.5v-9.9c0-1.2,0.2-2.3,0.4-3.1l0.1-0.4h-3
		L70.7,31.7z"/>
	<path class="st1" d="M113,35.1c-0.1,0.8-0.2,1.4-0.4,1.9l-4.5,12l-4.2-11.8c-0.3-0.8-0.4-1.4-0.5-2.1l0-0.3h-3.6l0.3,0.5
		c0.4,0.6,0.8,1.4,1.1,2.1l5.1,14.4h3l5.4-14.3c0.2-0.6,0.5-1.1,0.9-1.7c0.1-0.2,0.3-0.4,0.4-0.6l0.3-0.5H113L113,35.1z"/>
	<path class="st1" d="M91.4,48.1V37.7c0-0.9,0.2-1.8,0.3-2.4l0.1-0.6h-2.4l0.1,0.6c0.1,0.6,0.3,1.5,0.3,2.4v10.2l-9.9-13.1h-2.6
		l0.1,0.6c0.1,0.6,0.3,1.5,0.3,2.4v10.4c0,1.1-0.1,2.6-0.3,3.3l-0.1,0.4h2.5l-0.1-0.4c-0.2-0.7-0.3-2-0.3-3.3v-10l10.1,13.6h2.3
		l-0.1-0.4C91.5,50.7,91.4,49.4,91.4,48.1z"/>
</g>
</svg>
